# xmcd
#
# Track frame offsets:
#	183
#	16705
#	28520
#	42133
#	54818
#	69478
#	82663
#	100558
#	113845
#	125638
#	138180
#	151738
#
# Disc length: 2251 seconds
#
# Revision: 1
# Processed by: cddbd v1.5.1PL0 Copyright (c) Steve Scherf et al.
# Submitted via: audiograbber 1.82.02
#
DISCID=7d08c90c
DTITLE=Lasse Stefanz - Med gäster Vol 5
DYEAR=1900
DGENRE=Dansband
TTITLE0=Lasse Stefanz - Vat tänker du på gamle jord
TTITLE1=Wizex - Ett litet under
TTITLE2=Lasse Stefanz - En gitarr
TTITLE3=Sounders - Varje grej i vårt hus
TTITLE4=Paul Sahlin and Säwes - Montego Bay
TTITLE5=Lasse Stefanz - Ute på landet
TTITLE6=Lasse Stefanz - Min barndoms gröna dal
TTITLE7=Lasse Stefanz - Jiggen
TTITLE8=Roland Cedermark - Bluberry Hill
TTITLE9=Flamingo Kvintetten - Nu gungar jag på regnbågen igen
TTITLE10=Lasse Stefanz - Elaine
TTITLE11=Kikki Danielsson - En timme försent
EXTD=
EXTT0=
EXTT1=
EXTT2=
EXTT3=
EXTT4=
EXTT5=
EXTT6=
EXTT7=
EXTT8=
EXTT9=
EXTT10=
EXTT11=
PLAYORDER=
